HIERARCHY
ROOT mixamorig:Hips
{
	OFFSET 0.00 0.00 0.00
	CHANNELS 6 Xposition Yposition Zposition Zrotation Yrotation Xrotation
	JOINT mixamorig:Spine
	{
		OFFSET	0.0000	9.9235	-1.2273
		CHANNELS 3 Zrotation Yrotation Xrotation
		JOINT mixamorig:Spine1
		{
			OFFSET	-0.0001	11.6455	-1.4224
			CHANNELS 3 Zrotation Yrotation Xrotation
			JOINT mixamorig:Spine2
			{
				OFFSET	0.0001	13.3602	-1.6265
				CHANNELS 3 Zrotation Yrotation Xrotation
				JOINT mixamorig:Neck
				{
					OFFSET	0.0000	15.0325	0.7929
					CHANNELS 3 Zrotation Yrotation Xrotation
					JOINT mixamorig:Head
					{
						OFFSET	-0.0000	10.3218	3.1424
						CHANNELS 3 Zrotation Yrotation Xrotation
						JOINT mixamorig:HeadTop_End
						{
							OFFSET	0.0002	18.4747	6.6364
							CHANNELS 3 Zrotation Yrotation Xrotation
							End Site
							{
								OFFSET 0.0000 0.0000 0.0000
							}
						}
						JOINT mixamorig:LeftEye
						{
							OFFSET	2.9479	7.6817	9.1207
							CHANNELS 3 Zrotation Yrotation Xrotation
							End Site
							{
								OFFSET 0.0000 0.0000 0.0000
							}
						}
						JOINT mixamorig:RightEye
						{
							OFFSET	-2.9445	7.6817	9.1205
							CHANNELS 3 Zrotation Yrotation Xrotation
							End Site
							{
								OFFSET 0.0000 0.0000 0.0000
							}
						}
					}
				}
				JOINT mixamorig:LeftShoulder
				{
					OFFSET	6.1059	9.1104	0.7056
					CHANNELS 3 Zrotation Yrotation Xrotation
					JOINT mixamorig:LeftArm
					{
						OFFSET	12.6532	-0.3431	-2.6009
						CHANNELS 3 Zrotation Yrotation Xrotation
						JOINT mixamorig:LeftForeArm
						{
							OFFSET	27.3517	-0.9645	-1.4034
							CHANNELS 3 Zrotation Yrotation Xrotation
							JOINT mixamorig:LeftHand
							{
								OFFSET	27.5619	-0.7072	1.5500
								CHANNELS 3 Zrotation Yrotation Xrotation
								JOINT mixamorig:LeftHandMiddle1
								{
									OFFSET	12.6630	-1.3962	0.9548
									CHANNELS 3 Zrotation Yrotation Xrotation
									JOINT mixamorig:LeftHandMiddle2
									{
										OFFSET	3.6093	-0.1669	0.0778
										CHANNELS 3 Zrotation Yrotation Xrotation
										JOINT mixamorig:LeftHandMiddle3
										{
											OFFSET	3.4004	-0.6274	0.1148
											CHANNELS 3 Zrotation Yrotation Xrotation
											End Site
											{
												OFFSET 3.6205 -0.6493 0.1199
											}
										}
									}
								}
								JOINT mixamorig:LeftHandThumb1
								{
									OFFSET	3.3268	-2.0474	3.5790
									CHANNELS 3 Zrotation Yrotation Xrotation
									JOINT mixamorig:LeftHandThumb2
									{
										OFFSET	3.4890	-1.4806	2.8548
										CHANNELS 3 Zrotation Yrotation Xrotation
										JOINT mixamorig:LeftHandThumb3
										{
											OFFSET	3.4086	-1.7658	2.1133
											CHANNELS 3 Zrotation Yrotation Xrotation
											End Site
											{
												OFFSET 2.7231 -1.1597 1.7903
											}
										}
									}
								}
								JOINT mixamorig:LeftHandIndex1
								{
									OFFSET	11.9722	-1.1061	3.7324
									CHANNELS 3 Zrotation Yrotation Xrotation
									JOINT mixamorig:LeftHandIndex2
									{
										OFFSET	3.8387	-0.6406	-0.0310
										CHANNELS 3 Zrotation Yrotation Xrotation
										JOINT mixamorig:LeftHandIndex3
										{
											OFFSET	3.3346	-0.7374	-0.0133
											CHANNELS 3 Zrotation Yrotation Xrotation
											End Site
											{
												OFFSET 2.9714 -0.8030 0.0009
											}
										}
									}
								}
								JOINT mixamorig:LeftHandRing1
								{
									OFFSET	12.1659	-1.6805	-1.2769
									CHANNELS 3 Zrotation Yrotation Xrotation
									JOINT mixamorig:LeftHandRing2
									{
										OFFSET	3.5925	-0.2366	-0.0771
										CHANNELS 3 Zrotation Yrotation Xrotation
										JOINT mixamorig:LeftHandRing3
										{
											OFFSET	3.2906	-0.3266	-0.0615
											CHANNELS 3 Zrotation Yrotation Xrotation
											End Site
											{
												OFFSET 3.5423 -0.9211 -0.0200
											}
										}
									}
								}
								JOINT mixamorig:LeftHandPinky1
								{
									OFFSET	11.0508	-2.1872	-3.8040
									CHANNELS 3 Zrotation Yrotation Xrotation
									JOINT mixamorig:LeftHandPinky2
									{
										OFFSET	4.1236	-0.3047	0.1212
										CHANNELS 3 Zrotation Yrotation Xrotation
										JOINT mixamorig:LeftHandPinky3
										{
											OFFSET	2.5805	-0.2597	0.0823
											CHANNELS 3 Zrotation Yrotation Xrotation
											End Site
											{
												OFFSET 2.9027 -0.3379 0.0963
											}
										}
									}
								}
							}
						}
					}
				}
				JOINT mixamorig:RightShoulder
				{
					OFFSET	-6.1057	9.1105	0.7056
					CHANNELS 3 Zrotation Yrotation Xrotation
					JOINT mixamorig:RightArm
					{
						OFFSET	-12.6532	-0.3429	-2.6009
						CHANNELS 3 Zrotation Yrotation Xrotation
						JOINT mixamorig:RightForeArm
						{
							OFFSET	-27.3518	-0.9642	-1.4034
							CHANNELS 3 Zrotation Yrotation Xrotation
							JOINT mixamorig:RightHand
							{
								OFFSET	-27.5619	-0.7068	1.5501
								CHANNELS 3 Zrotation Yrotation Xrotation
								JOINT mixamorig:RightHandMiddle1
								{
									OFFSET	-12.6630	-1.3960	0.9549
									CHANNELS 3 Zrotation Yrotation Xrotation
									JOINT mixamorig:RightHandMiddle2
									{
										OFFSET	-3.6093	-0.1669	0.0778
										CHANNELS 3 Zrotation Yrotation Xrotation
										JOINT mixamorig:RightHandMiddle3
										{
											OFFSET	-3.4004	-0.6273	0.1148
											CHANNELS 3 Zrotation Yrotation Xrotation
											End Site
											{
												OFFSET -3.6205 -0.6492 0.1199
											}
										}
									}
								}
								JOINT mixamorig:RightHandThumb1
								{
									OFFSET	-3.3269	-2.0474	3.5790
									CHANNELS 3 Zrotation Yrotation Xrotation
									JOINT mixamorig:RightHandThumb2
									{
										OFFSET	-3.4890	-1.4805	2.8548
										CHANNELS 3 Zrotation Yrotation Xrotation
										JOINT mixamorig:RightHandThumb3
										{
											OFFSET	-3.4086	-1.7658	2.1133
											CHANNELS 3 Zrotation Yrotation Xrotation
											End Site
											{
												OFFSET -2.7231 -1.1596 1.7903
											}
										}
									}
								}
								JOINT mixamorig:RightHandIndex1
								{
									OFFSET	-11.9722	-1.1059	3.7324
									CHANNELS 3 Zrotation Yrotation Xrotation
									JOINT mixamorig:RightHandIndex2
									{
										OFFSET	-3.8387	-0.6406	-0.0310
										CHANNELS 3 Zrotation Yrotation Xrotation
										JOINT mixamorig:RightHandIndex3
										{
											OFFSET	-3.3346	-0.7373	-0.0133
											CHANNELS 3 Zrotation Yrotation Xrotation
											End Site
											{
												OFFSET -2.9715 -0.8029 0.0009
											}
										}
									}
								}
								JOINT mixamorig:RightHandRing1
								{
									OFFSET	-12.1659	-1.6803	-1.2769
									CHANNELS 3 Zrotation Yrotation Xrotation
									JOINT mixamorig:RightHandRing2
									{
										OFFSET	-3.5925	-0.2366	-0.0771
										CHANNELS 3 Zrotation Yrotation Xrotation
										JOINT mixamorig:RightHandRing3
										{
											OFFSET	-3.2906	-0.3265	-0.0615
											CHANNELS 3 Zrotation Yrotation Xrotation
											End Site
											{
												OFFSET -3.5423 -0.9210 -0.0200
											}
										}
									}
								}
								JOINT mixamorig:RightHandPinky1
								{
									OFFSET	-11.0508	-2.1870	-3.8040
									CHANNELS 3 Zrotation Yrotation Xrotation
									JOINT mixamorig:RightHandPinky2
									{
										OFFSET	-4.1236	-0.3046	0.1212
										CHANNELS 3 Zrotation Yrotation Xrotation
										JOINT mixamorig:RightHandPinky3
										{
											OFFSET	-2.5805	-0.2597	0.0823
											CHANNELS 3 Zrotation Yrotation Xrotation
											End Site
											{
												OFFSET -2.9027 -0.3379 0.0963
											}
										}
									}
								}
							}
						}
					}
				}
			}
		}
	}
	JOINT mixamorig:RightUpLeg
	{
		OFFSET	-9.1245	-6.6564	-0.0554
		CHANNELS 3 Zrotation Yrotation Xrotation
		JOINT mixamorig:RightLeg
		{
			OFFSET	0.0000	-40.5610	-1.7662
			CHANNELS 3 Zrotation Yrotation Xrotation
			JOINT mixamorig:RightFoot
			{
				OFFSET	0.4978	-41.9625	-3.3512
				CHANNELS 3 Zrotation Yrotation Xrotation
				JOINT mixamorig:RightToeBase
				{
					OFFSET	-0.3734	-10.4922	12.6406
					CHANNELS 3 Zrotation Yrotation Xrotation
					End Site
					{
						OFFSET 0.0000 0.0000 9.9925
					}
				}
			}
		}
	}
	JOINT mixamorig:LeftUpLeg
	{
		OFFSET	9.1245	-6.6564	-0.0554
		CHANNELS 3 Zrotation Yrotation Xrotation
		JOINT mixamorig:LeftLeg
		{
			OFFSET	-0.0000	-40.5610	-1.7662
			CHANNELS 3 Zrotation Yrotation Xrotation
			JOINT mixamorig:LeftFoot
			{
				OFFSET	-0.4978	-41.9625	-3.3512
				CHANNELS 3 Zrotation Yrotation Xrotation
				JOINT mixamorig:LeftToeBase
				{
					OFFSET	0.3734	-10.4922	12.6406
					CHANNELS 3 Zrotation Yrotation Xrotation
					End Site
					{
						OFFSET -0.0000 0.0000 9.9925
					}
				}
			}
		}
	}
}
MOTION
Frames: 9
Frame Time: 0.0333333
2.3876 113.1002 -3.9185 0.1322 -13.2739 -8.8605 2.6168 -4.9632 29.3032 0.0416 -0.4759 2.5249 -0.0645 -0.4438 2.5609 0.6282 1.1149 -3.9445 7.0980 5.3991 -18.4925 0.0000 -0.0000 0.0000 0.0000 -0.0000 0.0000 0.0000 -0.0000 0.0000 20.4844 -11.7643 -1.5087 29.4461 -56.2379 -76.4073 -0.3713 -26.6092 -0.7362 -17.6921 2.2734 -144.9502 -48.4757 -4.9018 2.2796 -53.4936 -2.0579 2.2630 -14.3739 -0.8243 0.4272 -3.9324 0.7884 6.6981 10.2437 -9.4110 12.9682 0.6067 -7.6703 -2.0418 -36.2232 -9.1347 0.3862 -49.6827 -2.4991 0.3228 -14.0025 -0.6444 -0.1022 -58.7949 -9.5023 2.5011 -76.9839 -4.1118 1.0345 -19.9863 -0.9245 -0.2420 -62.6063 -3.8373 3.1521 -74.6872 -2.1491 3.8707 -38.3478 -1.7593 1.6541 -10.1246 -3.7365 0.5428 78.9591 71.4796 23.3842 -167.5784 81.7964 -169.6917 -7.3410 -45.9244 -25.0915 57.7720 2.1891 3.5350 101.1038 3.2100 6.4643 19.0792 1.4531 0.6050 17.1860 -5.1129 13.7050 -23.1239 -7.8086 20.8714 -34.7661 -47.9544 34.4967 6.7183 9.6292 -1.2788 43.0087 3.1036 0.3237 27.1214 1.9611 -0.0564 59.7296 12.0085 2.9919 97.5825 5.9831 3.3989 41.4214 3.1932 0.0999 65.9983 9.9123 3.6313 79.3347 3.3727 5.0431 57.1581 3.2154 3.2390 25.3204 -6.0151 -81.0180 -1.1649 11.4202 147.4424 0.7771 -14.0272 3.4160 -0.0000 -0.0000 -2.1453 3.9772 9.1298 -31.8589 0.5556 3.6705 17.8914 -10.1564 7.0869 17.5175 0.0000 -0.0000 1.3057 
2.7780 108.3078 -3.0294 -1.3776 -13.8720 -8.6154 4.4396 -6.1104 30.0052 0.2315 -0.5854 2.0017 0.2653 -0.5884 1.9933 0.5243 1.1499 -4.8591 6.7410 5.9086 -18.3624 0.0000 -0.0000 0.0000 0.0000 -0.0000 0.0000 0.0000 -0.0000 0.0000 20.6482 -11.2926 -1.3855 34.2203 -57.6629 -79.7656 -0.4637 -18.8031 -0.4998 -16.8278 -3.2900 -146.3568 -49.1354 -4.4493 2.3421 -53.0329 -2.0486 2.2361 -13.9032 -0.7998 0.4100 -3.9345 0.7610 6.6901 10.2638 -9.4557 12.9272 0.6072 -7.6515 -2.0346 -36.8807 -9.2476 0.4073 -49.5391 -2.4925 0.3187 -13.8624 -0.6369 -0.1019 -60.1593 -9.0012 2.6212 -77.9260 -4.1460 1.0797 -20.9001 -0.9791 -0.2452 -64.1938 -3.0275 3.3140 -75.1634 -2.1449 3.9008 -38.8057 -1.7730 1.6802 -9.8853 -2.6320 0.4198 73.2617 73.8623 19.5927 -160.1436 85.1748 -162.2124 -6.4804 -46.4257 -27.0524 60.0919 2.1012 3.7284 101.1953 3.2070 6.4711 19.0792 1.4530 0.6051 17.1775 -5.1458 13.7112 -23.1278 -7.8316 20.8996 -34.7535 -47.9461 34.4776 7.4558 9.0893 -1.1463 42.9818 3.1018 0.3228 27.1214 1.9611 -0.0564 59.7763 12.1902 2.9836 97.6346 5.9840 3.4030 41.4214 3.1932 0.0998 66.4504 10.0004 3.6621 80.3801 3.3633 5.1293 58.2043 3.2388 3.3227 22.7427 -1.8453 -86.4813 -2.2972 10.6389 142.4973 0.2535 -12.5493 0.9851 0.0000 -0.0000 -1.5208 4.7808 13.0516 -20.9069 -0.2729 4.7937 9.7557 -11.4145 5.7252 23.1824 0.0000 -0.0000 3.1834 
2.9770 101.2842 -0.4527 -1.5118 -15.1733 -7.8041 3.9075 -6.4670 29.4179 0.5096 -0.7360 1.5770 0.6634 -0.7995 1.4907 0.4514 1.3047 -5.1497 6.5745 6.7468 -16.5215 0.0000 -0.0000 0.0000 0.0000 -0.0000 0.0000 0.0000 -0.0000 0.0000 20.7726 -11.5183 -1.4685 34.6178 -57.1763 -80.2384 -0.4828 -16.6140 -0.4378 -18.0468 -4.2465 -147.2791 -51.8708 -2.9585 2.5835 -53.5382 -2.0588 2.2656 -14.4106 -0.8263 0.4286 -3.9277 0.7101 6.6664 10.2572 -9.4409 12.9408 0.6119 -7.6665 -2.0407 -36.0817 -10.0116 0.2270 -50.0154 -2.5142 0.3322 -14.3794 -0.6646 -0.1031 -62.4150 -7.9909 2.8311 -77.7298 -4.1389 1.0702 -20.6792 -0.9659 -0.2445 -66.4045 -2.1236 3.5223 -75.8425 -2.1385 3.9438 -39.4791 -1.7928 1.7188 -8.3252 0.0276 0.2690 66.4716 75.2981 12.5199 -157.1593 85.8432 -159.2191 -3.6989 -49.5476 -27.7573 60.6794 2.2255 3.7706 101.8519 3.1851 6.5201 19.0792 1.4530 0.6050 17.1888 -5.1426 13.7124 -23.1284 -7.8467 20.9204 -34.7380 -47.9342 34.4565 10.4470 9.3903 -1.0452 42.9852 3.1021 0.3229 27.1214 1.9611 -0.0564 60.6214 12.4087 3.0389 97.7875 5.9864 3.4150 41.4214 3.1932 0.0999 68.1376 10.3067 3.7788 81.6799 3.3493 5.2363 59.5080 3.2660 3.4277 15.1618 2.5610 -86.5486 -3.9638 8.7235 133.8419 2.4429 -11.0903 -7.5407 0.0000 -0.0000 -2.4334 3.6887 15.8447 -18.2124 1.1648 5.2658 20.1150 -5.1808 0.7746 10.2827 0.0000 -0.0000 -1.4165 
2.8553 93.7314 3.4102 -0.0479 -15.4329 -7.7876 0.4456 -6.4541 29.0249 0.9859 -1.0263 1.3066 0.9292 -0.9939 1.3388 0.3608 1.6411 -4.3053 6.5356 7.9515 -12.6961 0.0000 -0.0000 0.0000 0.0000 -0.0000 0.0000 0.0000 -0.0000 0.0000 20.1202 -13.5228 -1.9566 31.6283 -55.6149 -79.8483 -0.4460 -20.5901 -0.5516 -21.1186 0.7858 -145.2105 -57.1307 -1.8704 2.9665 -55.9506 -2.1039 2.4081 -16.8165 -0.9494 0.5199 -3.9146 0.6235 6.6263 10.2396 -9.4019 12.9766 0.6251 -7.6941 -2.0523 -40.1357 -8.6986 0.7032 -52.5907 -2.6299 0.4083 -16.9040 -0.8001 -0.1054 -66.0898 -6.8559 3.1383 -76.8484 -4.1069 1.0280 -19.7678 -0.9114 -0.2411 -69.8791 -1.7467 3.7697 -75.7741 -2.1391 3.9395 -39.4081 -1.7907 1.7147 -5.9782 2.4236 0.3023 61.5714 74.2126 5.0244 -165.6759 83.0562 -167.7727 -0.2208 -53.5294 -27.1644 61.9292 2.5118 3.8596 102.3499 3.1681 6.5571 19.0792 1.4531 0.6050 17.2485 -5.1270 13.7140 -23.1320 -7.8822 20.9623 -34.7323 -47.9306 34.4482 11.9592 9.1957 -0.9289 42.9731 3.1013 0.3225 27.1214 1.9611 -0.0564 61.7536 12.6173 3.1188 97.8735 5.9877 3.4217 41.4214 3.1932 0.0999 69.4695 10.6987 3.8594 81.3264 3.3534 5.2072 59.1604 3.2590 3.3996 7.2814 4.0014 -82.4597 -5.6966 6.7749 123.1448 7.2535 -11.8884 -19.2563 0.0000 -0.0000 -3.8106 1.3493 17.2478 -19.6331 3.2946 4.4309 43.1955 1.0188 -0.2794 -14.4885 -0.0000 0.0000 -5.0931 
2.8131 87.8524 7.2801 1.2403 -16.0697 -6.9206 -1.5411 -5.9502 27.2401 0.8999 -1.1863 1.7309 0.7710 -1.0029 1.8723 0.0302 2.1661 -2.4921 6.9190 9.6488 -7.4627 0.0000 -0.0000 0.0000 0.0000 -0.0000 0.0000 0.0000 -0.0000 0.0000 18.5093 -16.1713 -2.5044 24.9527 -57.5595 -77.0220 -0.4012 -24.4272 -0.6673 -20.8253 4.7054 -138.8597 -60.5487 -1.8091 3.1863 -57.8612 -2.1353 2.5221 -18.7166 -1.0439 0.5955 -3.9010 0.5398 6.5875 10.2141 -9.3452 13.0287 0.6392 -7.7239 -2.0648 -43.7208 -7.3983 1.1491 -55.1886 -2.7430 0.4902 -19.4483 -0.9365 -0.1017 -68.1519 -6.3790 3.2995 -75.7901 -4.0675 0.9781 -18.6973 -0.8475 -0.2360 -71.5832 -1.8995 3.8646 -75.1791 -2.1447 3.9018 -38.8124 -1.7732 1.6806 -3.4917 3.5874 0.5215 66.8038 67.6148 9.0401 -169.3073 80.1635 -171.4418 -3.0414 -51.1612 -20.0992 62.9812 2.9512 3.9253 102.5983 3.1595 6.5755 19.0792 1.4530 0.6050 17.3153 -5.1056 13.7143 -23.1350 -7.9313 21.0182 -34.7362 -47.9346 34.4525 12.0776 8.7008 -0.8354 42.9552 3.1001 0.3218 27.1214 1.9611 -0.0564 62.6017 12.7658 3.1794 97.8953 5.9881 3.4234 41.4214 3.1932 0.0999 69.9223 10.9915 3.8745 80.2466 3.3646 5.1183 58.0855 3.2362 3.3132 2.2021 3.6601 -76.8256 -6.5794 4.0657 109.5281 13.6170 -13.0331 -28.3450 0.0000 -0.0000 -5.0757 -0.4863 17.8532 -16.6467 5.2790 3.9779 57.9947 1.4896 0.0592 -34.6901 -0.0000 0.0000 -5.6718 
3.2296 84.9344 10.1861 0.4178 -18.8827 -3.1260 1.9899 -4.8867 22.1573 -0.3866 -0.9567 3.1443 0.2742 -0.9039 3.0138 -0.2807 2.7430 -0.4896 7.9387 11.5511 -1.3490 0.0000 -0.0000 0.0000 0.0000 -0.0000 0.0000 0.0000 -0.0000 0.0000 16.2959 -17.5071 -2.6066 17.5546 -60.9626 -72.7566 -0.4213 -22.8076 -0.6177 -18.1026 1.4962 -131.6847 -60.4751 -2.2882 3.1590 -57.8808 -2.1356 2.5233 -18.7309 -1.0446 0.5961 -3.8928 0.5048 6.5707 10.1892 -9.2896 13.0797 0.6425 -7.7443 -2.0729 -43.9872 -7.4526 1.1568 -56.0721 -2.7805 0.5192 -20.3328 -0.9839 -0.0991 -67.7714 -6.5572 3.2640 -75.1151 -4.0419 0.9466 -18.0290 -0.8076 -0.2323 -70.7226 -2.0909 3.7964 -74.6498 -2.1494 3.8683 -38.2830 -1.7574 1.6504 -2.1537 3.4951 0.7141 74.6661 60.6731 17.2760 -167.3968 81.9365 -169.5083 -8.4308 -42.7550 -10.5924 63.0498 3.3226 3.9133 102.6388 3.1581 6.5785 19.0792 1.4530 0.6050 17.3614 -5.0891 13.7120 -23.1381 -7.9834 21.0774 -34.7464 -47.9426 34.4657 11.7766 8.2684 -0.7763 42.9444 3.0994 0.3215 27.1214 1.9611 -0.0564 62.7592 12.8503 3.1869 97.8850 5.9879 3.4227 41.4214 3.1932 0.0998 69.4906 11.0937 3.8307 79.6189 3.3703 5.0665 57.4597 3.2223 3.2631 1.6005 2.8136 -72.4576 -4.2004 0.6580 92.6961 18.2567 -14.6475 -30.4720 0.0000 0.0000 -6.0776 -1.7558 18.0227 -8.7748 7.2115 5.4506 56.4119 -1.1179 -0.0015 -44.5545 -0.0000 0.0000 -5.9774 
3.2517 83.7657 12.1906 -0.5384 -19.2526 2.7402 4.6143 -7.3531 15.2788 -1.2763 -1.1209 4.2587 -0.1433 -1.0761 4.1683 0.2180 3.0622 0.7923 8.9463 13.3852 4.2589 0.0000 -0.0000 0.0000 0.0000 -0.0000 0.0000 0.0000 -0.0000 0.0000 15.4135 -14.5238 -1.7969 13.4229 -62.9779 -70.6288 -0.4356 -21.5585 -0.5802 -16.8158 -1.7955 -128.8917 -58.9747 -1.6938 3.0918 -57.6646 -2.1323 2.5104 -18.5229 -1.0344 0.5877 -3.8961 0.5779 6.6014 10.1695 -9.2456 13.1199 0.6412 -7.7446 -2.0729 -43.0123 -7.1588 1.1446 -55.7879 -2.7685 0.5098 -20.0442 -0.9685 -0.1000 -66.9873 -6.4509 3.2213 -74.5390 -4.0198 0.9199 -17.4536 -0.7734 -0.2287 -69.3720 -1.7839 3.7350 -74.5120 -2.1506 3.8595 -38.1447 -1.7532 1.6425 -1.6556 2.4844 0.5550 77.1528 61.0195 24.9369 -156.3518 85.9916 -158.4095 -10.9906 -37.4103 -10.8692 62.6474 3.0578 3.8928 102.5888 3.1599 6.5748 19.0792 1.4531 0.6051 17.3934 -5.0758 13.7087 -23.1399 -8.0020 21.1005 -34.7593 -47.9488 34.4846 12.1941 8.2917 -0.7575 42.9429 3.0993 0.3214 27.1214 1.9611 -0.0564 62.3627 12.8834 3.1516 97.8855 5.9879 3.4227 41.4214 3.1932 0.0999 69.0698 11.0686 3.7976 79.6229 3.3702 5.0668 57.4633 3.2224 3.2634 2.7300 3.3750 -70.8221 -2.1517 -0.2099 77.4879 18.1954 -15.3342 -24.4775 -0.0000 -0.0000 -7.9708 -4.1537 15.9372 -4.9243 0.2091 1.0004 51.5432 -3.4805 9.3118 -42.0048 -0.0000 0.0000 -16.4704 
2.1857 83.0073 13.8227 -0.3396 -15.6653 9.6747 3.7401 -11.8377 7.9146 -0.8838 -1.7738 4.6761 -0.2870 -1.6128 4.7544 1.8946 2.9626 0.8720 9.1615 15.3773 7.6077 0.0000 -0.0000 0.0000 0.0000 -0.0000 0.0000 0.0000 -0.0000 0.0000 16.2308 -12.8748 -1.1831 7.1790 -61.2825 -66.3703 -0.3397 -28.6668 -0.8037 -17.6032 2.2974 -128.3210 -56.3360 -0.2882 2.9907 -56.4082 -2.1118 2.4353 -17.3052 -0.9740 0.5390 -3.9008 0.6634 6.6408 10.1565 -9.2166 13.1465 0.6380 -7.7272 -2.0660 -39.4617 -7.7684 0.8190 -54.1036 -2.6962 0.4554 -18.3761 -0.8791 -0.1040 -65.7804 -5.9486 3.1773 -74.8217 -4.0307 0.9330 -17.7323 -0.7899 -0.2304 -67.6669 -1.1792 3.6735 -74.5452 -2.1503 3.8617 -38.1809 -1.7543 1.6446 -1.5191 0.7441 0.1183 78.3498 62.8968 30.5303 -158.0804 85.6588 -160.1427 -12.2114 -37.3280 -14.8292 62.7568 2.7621 3.9158 102.5582 3.1609 6.5726 19.0792 1.4530 0.6050 17.3657 -5.0309 13.6964 -23.1412 -8.0122 21.1127 -34.8047 -47.9774 34.5579 13.4354 8.6480 -0.7505 42.9435 3.0993 0.3214 27.1214 1.9611 -0.0564 61.8291 12.9146 3.1051 97.8741 5.9877 3.4218 41.4214 3.1932 0.0999 68.7592 10.9974 3.7772 79.6542 3.3700 5.0695 57.4935 3.2231 3.2658 4.4907 7.2227 -70.6694 -2.1589 1.0200 65.6056 6.2238 -18.2486 -12.4837 0.0000 0.0000 -6.8913 -4.5682 14.0243 -4.2811 2.5777 1.1751 48.8621 -5.8391 3.6805 -28.8488 -0.0001 0.0000 -29.7916 
1.3116 81.8983 14.4788 -0.2492 -12.4139 14.8096 2.5866 -14.3630 4.9093 -0.2330 -2.1702 4.8677 -0.2968 -2.0275 4.6417 3.8885 2.7541 0.0458 8.8010 17.4654 7.7032 0.0000 -0.0000 0.0000 0.0000 -0.0000 0.0000 0.0000 -0.0000 0.0000 18.7707 -11.8645 -0.6135 8.4338 -59.1731 -70.1826 -0.1913 -36.2293 -1.0779 -19.6751 8.1763 -129.8041 -58.0553 0.7006 3.1465 -55.7558 -2.1005 2.3965 -16.6962 -0.9434 0.5152 -3.9069 0.7604 6.6855 10.1574 -9.2185 13.1447 0.6367 -7.7060 -2.0577 -40.2542 -7.4197 0.9273 -54.0761 -2.6950 0.4545 -18.3410 -0.8772 -0.1041 -67.1132 -5.8239 3.2697 -74.8743 -4.0327 0.9354 -17.7844 -0.7931 -0.2308 -68.8856 -1.3192 3.7397 -74.7234 -2.1488 3.8730 -38.3579 -1.7596 1.6546 -1.6211 -1.2869 -0.2588 81.1943 65.4032 32.4212 -168.0598 81.3998 -170.1783 -12.1611 -41.3848 -15.7714 62.6328 2.6082 3.9129 102.5772 3.1602 6.5740 19.0792 1.4531 0.6051 17.2955 -5.0104 13.6872 -23.1384 -7.9758 21.0714 -34.8622 -48.0116 34.6486 14.0818 8.6165 -0.7083 42.9445 3.0994 0.3215 27.1214 1.9611 -0.0564 61.5576 12.9887 3.0775 97.7880 5.9864 3.4150 41.4214 3.1932 0.0999 68.5506 11.0200 3.7581 79.9022 3.3678 5.0899 57.7418 3.2286 3.2857 5.7666 10.1078 -69.4961 0.0367 3.8868 63.5417 -1.8619 -20.4810 -7.9743 0.0000 0.0000 -5.7163 -3.7943 12.0813 -8.4913 1.6768 -1.1245 52.2666 -5.9903 2.9158 -4.9279 -0.1838 -0.1160 -52.6360 
